<?xml version="1.0" standalone="no"?>
<!DOCTYPE svg PUBLIC "-//W3C//DTD SVG 20010904//EN"
 "http://www.w3.org/TR/2001/REC-SVG-20010904/DTD/svg10.dtd">
<svg version="1.0" xmlns="http://www.w3.org/2000/svg"
 width="700.000000pt" height="700.000000pt" viewBox="0 0 700.000000 700.000000"
 preserveAspectRatio="xMidYMid meet">
<metadata>
Created by potrace 1.11, written by Peter Selinger 2001-2013
</metadata>
<g transform="translate(0.000000,700.000000) scale(0.100000,-0.100000)"
fill="#000000" stroke="none">
<path d="M1547 6683 c-1 0 -40 -3 -87 -6 -284 -17 -521 -128 -740 -347 -263
-262 -421 -623 -457 -1045 -9 -116 -10 -3439 0 -3565 20 -260 89 -510 199
-724 23 -44 49 -92 59 -106 9 -14 34 -52 55 -84 85 -128 241 -287 359 -364
126 -83 251 -136 395 -168 69 -15 249 -17 2094 -18 1867 -2 2087 0 2186 19 49
10 49 9 115 30 158 50 347 172 478 309 214 222 373 535 435 857 30 150 32 168
38 265 6 113 7 3423 0 3524 -16 236 -78 473 -179 680 -35 72 -38 77 -123 204
-197 296 -544 509 -868 533 -66 4 -3954 11 -3959 6z"/>
</g>
</svg>
